<svg width="22" height="22" viewBox="0 0 22 22" fill="none" xmlns="http://www.w3.org/2000/svg">
<path fill-rule="evenodd" clip-rule="evenodd" d="M11 -3.12224e-08C11.5523 -1.39788e-08 12 0.447715 12 1L12 21C12 21.5523 11.5523 22 11 22C10.4477 22 10 21.5523 10 21L10 1C10 0.447715 10.4477 -4.84661e-08 11 -3.12224e-08Z" fill="white"/>
<path fill-rule="evenodd" clip-rule="evenodd" d="M22 11C22 11.5523 21.5523 12 21 12L1 12C0.447714 12 0 11.5523 0 11C0 10.4477 0.447714 10 1 10L21 10C21.5523 10 22 10.4477 22 11Z" fill="white"/>
</svg>
