<svg width="129" height="129" viewBox="0 0 129 129" fill="none" xmlns="http://www.w3.org/2000/svg">
<path d="M56.975 89.225L94.8688 51.3313L87.3438 43.8063L56.975 74.175L41.6563 58.8563L34.1313 66.3813L56.975 89.225ZM64.5 118.25C57.0646 118.25 50.0771 116.839 43.5375 114.017C36.9979 111.195 31.3094 107.366 26.4719 102.528C21.6344 97.6906 17.8047 92.0021 14.9828 85.4625C12.1609 78.9229 10.75 71.9354 10.75 64.5C10.75 57.0646 12.1609 50.0771 14.9828 43.5375C17.8047 36.9979 21.6344 31.3094 26.4719 26.4719C31.3094 21.6344 36.9979 17.8047 43.5375 14.9828C50.0771 12.1609 57.0646 10.75 64.5 10.75C71.9354 10.75 78.9229 12.1609 85.4625 14.9828C92.0021 17.8047 97.6906 21.6344 102.528 26.4719C107.366 31.3094 111.195 36.9979 114.017 43.5375C116.839 50.0771 118.25 57.0646 118.25 64.5C118.25 71.9354 116.839 78.9229 114.017 85.4625C111.195 92.0021 107.366 97.6906 102.528 102.528C97.6906 107.366 92.0021 111.195 85.4625 114.017C78.9229 116.839 71.9354 118.25 64.5 118.25ZM64.5 107.5C76.5042 107.5 86.6719 103.334 95.0031 95.0031C103.334 86.6719 107.5 76.5042 107.5 64.5C107.5 52.4958 103.334 42.3281 95.0031 33.9969C86.6719 25.6656 76.5042 21.5 64.5 21.5C52.4958 21.5 42.3281 25.6656 33.9969 33.9969C25.6656 42.3281 21.5 52.4958 21.5 64.5C21.5 76.5042 25.6656 86.6719 33.9969 95.0031C42.3281 103.334 52.4958 107.5 64.5 107.5Z" fill="#3399FF"/>
</svg>
