<svg width="171" height="171" viewBox="0 0 171 171" fill="none" xmlns="http://www.w3.org/2000/svg">
<g id="Group 3 1" clip-path="url(#clip0_13_813)">
<path id="Vector" d="M146.572 4.07143H24.4287C13.1857 4.07143 4.07153 13.1856 4.07153 24.4286V146.571C4.07153 157.814 13.1857 166.929 24.4287 166.929H146.572C157.814 166.929 166.929 157.814 166.929 146.571V24.4286C166.929 13.1856 157.814 4.07143 146.572 4.07143Z" fill="white" stroke="#3399FF" stroke-width="8"/>
<path id="Vector_2" d="M74.0693 63.3514C74.9351 63.6663 75.7223 64.0205 76.4307 64.4141C77.1392 64.7683 77.7492 65.2406 78.2608 65.8309C79.2447 66.8542 79.7367 68.3301 79.7367 70.2586C79.7367 72.1084 79.2447 73.604 78.2608 74.7453C77.7492 75.2963 77.1392 75.7686 76.4307 76.1622C75.7223 76.5164 74.9351 76.851 74.0693 77.1658C73.2034 77.4413 72.2392 77.6577 71.1766 77.8152C70.1532 78.0119 69.0513 78.1694 67.8706 78.2875C66.7291 78.3661 65.5288 78.4252 64.2694 78.4646C63.0493 78.504 61.7505 78.5236 60.373 78.5236C58.9955 78.5236 57.677 78.504 56.4176 78.4646C55.1975 78.4252 53.9972 78.3661 52.8165 78.2875C51.675 78.1694 50.5731 78.0119 49.5105 77.8152C48.4871 77.6577 47.5425 77.4413 46.6767 77.1658C45.8109 76.851 45.0237 76.5164 44.3153 76.1622C43.6462 75.7686 43.0362 75.2963 42.4852 74.7453C41.5012 73.604 41.0093 72.1084 41.0093 70.2586C41.0093 68.645 41.5012 67.2872 42.4852 66.1851C43.0362 65.6342 43.6462 65.1421 44.3153 64.7093C45.0237 64.2764 45.8109 63.9024 46.6767 63.5876C47.5425 63.2727 48.4871 63.0366 49.5105 62.8791C50.5731 62.6824 51.675 62.5249 52.8165 62.4069C53.9972 62.2494 55.1975 62.1511 56.4176 62.1117C57.677 62.033 58.9955 61.9936 60.373 61.9936C61.7505 61.9936 63.0493 62.0133 64.2694 62.0526C65.5288 62.092 66.7291 62.1511 67.8706 62.2298C69.0513 62.3084 70.1532 62.4462 71.1766 62.643C72.2392 62.8005 73.2034 63.0366 74.0693 63.3514ZM72.7115 45.4636C72.7115 45.2275 72.7115 44.8929 72.7115 44.46C72.7508 44.0271 72.7705 43.5745 72.7705 43.1022C72.7705 42.5905 72.7311 42.138 72.6525 41.7444C72.6131 41.3115 72.5146 40.9965 72.3573 40.7998C72.1998 40.6423 71.8652 40.544 71.3537 40.5046C70.8814 40.4652 70.3501 40.4456 69.7597 40.4456C69.1693 40.4456 68.5986 40.4652 68.0477 40.5046C67.4966 40.544 67.0834 40.5636 66.8079 40.5636C64.7219 40.5636 62.518 40.544 60.1959 40.5046C57.9132 40.4652 55.7485 40.4259 53.702 40.3865C51.6554 40.3471 49.8449 40.3079 48.2707 40.2685C46.7358 40.2291 45.6731 40.1898 45.0828 40.1504C44.1382 40.1504 43.2723 39.9536 42.4852 39.56C41.698 39.1664 41.2061 38.4187 41.0093 37.3167C40.8125 36.5689 40.8322 35.7621 41.0684 34.8962C41.3438 34.0303 41.8555 33.3809 42.6033 32.948C43.0362 32.7119 43.4888 32.5544 43.9611 32.4757C44.4334 32.3971 44.9253 32.3183 45.437 32.2396C47.9952 32.0429 50.4943 31.9641 52.9345 32.0035C55.414 32.0035 57.9328 32.0429 60.4911 32.1215C62.4983 32.1215 64.4661 32.1412 66.3947 32.1806C68.3625 32.22 70.3501 32.2396 72.3573 32.2396C73.3411 32.2396 74.4432 32.338 75.6633 32.5348C76.8833 32.6922 77.8672 33.1842 78.6151 34.0107C79.166 34.6797 79.4612 35.3881 79.5006 36.136C79.5793 36.8838 79.658 37.6512 79.7367 38.4384V42.5709C79.776 43.358 79.776 44.2042 79.7367 45.1094C79.7367 46.0146 79.6383 46.8608 79.4416 47.6479C79.2841 48.435 78.9889 49.1042 78.556 49.6551C78.1624 50.2061 77.5721 50.5013 76.785 50.5407C75.7616 50.6194 74.9745 50.521 74.4235 50.2455C73.8725 49.9307 73.4592 49.5371 73.1838 49.0648C72.9476 48.5925 72.8098 48.0415 72.7705 47.4118C72.7311 46.782 72.7115 46.1326 72.7115 45.4636ZM81.862 52.9021C82.2162 53.2169 82.413 53.709 82.4524 54.378C82.4917 55.0077 82.4524 55.5784 82.3343 56.09C82.1769 56.5229 81.9801 56.7985 81.744 56.9165C81.6259 57.1133 81.429 57.2707 81.1536 57.3888C80.9175 57.5069 80.6813 57.6053 80.4452 57.684C80.209 57.7627 79.9729 57.8217 79.7367 57.8611C79.5399 57.9005 79.3431 57.9201 79.1464 57.9201C77.3753 58.1563 75.6633 58.235 74.0103 58.1563C72.3573 58.0776 70.6845 58.0382 68.9922 58.0382H45.6731C44.7679 58.1563 43.8627 58.1563 42.9575 58.0382C42.4458 58.0382 41.9539 57.9988 41.4816 57.9201C41.0486 57.8021 40.6354 57.5856 40.2419 57.2707C39.6908 56.8379 39.3366 56.2277 39.1792 55.4406C39.0217 54.6535 39.1595 53.9647 39.5925 53.3744C40.0254 52.9021 40.537 52.5085 41.1274 52.1937C42.3868 51.8395 43.6659 51.7017 44.9647 51.7804C46.2635 51.8198 47.5623 51.8395 48.8611 51.8395H55.1779C55.1779 51.131 55.1779 50.403 55.1779 49.6551C55.1779 48.9073 55.2172 48.1596 55.296 47.4118C55.3746 46.2311 55.7879 45.4046 56.5357 44.9323C57.3228 44.4206 58.228 44.2239 59.2514 44.3419C60.2352 44.4206 60.9634 44.7158 61.4357 45.2275C61.908 45.7391 62.2228 46.3688 62.3802 47.1166C62.577 47.8644 62.6557 48.6515 62.6164 49.478C62.6164 50.3045 62.6164 51.0916 62.6164 51.8395H77.7295C78.2411 51.8395 78.6937 51.8591 79.0873 51.8985C79.5202 51.8985 79.8941 51.9575 80.209 52.0756C80.5632 52.2331 80.8387 52.3511 81.0355 52.4298C81.2717 52.4692 81.5471 52.6266 81.862 52.9021ZM70.9404 71.9706C71.2552 71.7739 71.511 71.5377 71.7079 71.2622C71.9046 70.9474 72.0031 70.6128 72.0031 70.2586C72.0031 69.9438 71.9046 69.6682 71.7079 69.4321C71.511 69.196 71.2552 69.0189 70.9404 68.9008C70.5862 68.704 70.1926 68.5662 69.7597 68.4875C69.3267 68.3695 68.8151 68.271 68.2248 68.1924C67.6344 68.0349 67.0243 67.9562 66.3947 67.9562C65.7649 67.9168 65.1155 67.8578 64.4465 67.7791H56.2996C55.6304 67.8578 55.0008 67.9168 54.4104 67.9562C53.8201 67.9562 53.2494 68.0349 52.6984 68.1924C51.5964 68.3104 50.7502 68.5466 50.1599 68.9008C49.4514 69.1369 49.0972 69.5896 49.0972 70.2586C49.0972 70.8096 49.4514 71.2622 50.1599 71.6164C50.4747 71.8132 50.8289 71.9706 51.2225 72.0887C51.6554 72.1674 52.1473 72.2658 52.6984 72.3839C53.2494 72.4626 53.8201 72.5216 54.4104 72.561C55.0008 72.6004 55.6304 72.62 56.2996 72.62C56.9686 72.62 57.6376 72.6397 58.3068 72.6791C58.9758 72.7185 59.6646 72.7381 60.373 72.7381H64.4465C65.1155 72.7381 65.7649 72.7381 66.3947 72.7381C67.0243 72.7381 67.6344 72.6987 68.2248 72.62C68.8151 72.5414 69.3267 72.4626 69.7597 72.3839C70.1926 72.2658 70.5862 72.1281 70.9404 71.9706ZM94.0464 57.2117C93.6135 57.2117 93.2199 57.2117 92.8657 57.2117C92.5508 57.2117 92.2359 57.1723 91.9211 57.0936C91.5275 57.015 91.1536 56.8969 90.7994 56.7394C90.4846 56.582 90.2091 56.3656 89.9729 56.09C89.6581 55.8933 89.422 55.6177 89.2645 55.2635C89.1464 54.9093 89.0874 54.5157 89.0874 54.0828C89.0874 53.7286 89.1464 53.3744 89.2645 53.0202C89.422 52.6266 89.6187 52.3314 89.8548 52.1346C90.1304 51.8591 90.5239 51.6427 91.0356 51.4852C91.2323 51.4066 91.4488 51.3475 91.685 51.3081C91.9211 51.2295 92.1376 51.1507 92.3344 51.072H93.456H94.0464H126.043H128.523C129.389 51.072 130.156 51.3672 130.825 51.9575C131.691 52.5873 132.124 53.3744 132.124 54.319C132.124 54.8699 131.967 55.362 131.652 55.7949C131.259 56.3852 130.766 56.7591 130.176 56.9165C129.349 57.2314 128.602 57.3888 127.932 57.3888H125.453C124.47 57.3888 123.446 57.4085 122.383 57.4479C121.32 57.4872 120.357 57.5069 119.49 57.5069H115.004L115.122 59.8683V60.6358C115.122 60.7932 115.122 60.99 115.122 61.2261C115.122 61.4229 115.083 61.7181 115.004 62.1117C115.004 62.3084 114.965 62.5249 114.886 62.7611C114.847 62.9972 114.788 63.2727 114.708 63.5876C114.708 63.8237 114.67 64.0205 114.59 64.1779C114.552 64.3354 114.493 64.4928 114.413 64.6502C113.784 65.398 113.095 65.8309 112.347 65.949C111.56 66.2245 110.793 66.2836 110.045 66.1261C109.494 65.9686 109.041 65.7325 108.687 65.4177C108.372 65.0635 108.096 64.6502 107.86 64.1779C107.388 63.312 107.074 62.3282 106.916 61.2261V59.5731V57.5069H101.957C101.249 57.5069 100.56 57.5069 99.8909 57.5069C99.2219 57.5069 98.5527 57.4675 97.8837 57.3888H95.8765C95.5617 57.3888 95.2467 57.3888 94.9319 57.3888C94.6564 57.3494 94.3612 57.2904 94.0464 57.2117ZM96.8801 39.9142C96.5653 39.9142 96.2504 39.8749 95.9355 39.7962C95.6207 39.6781 95.3058 39.5797 94.991 39.501C94.44 39.3829 93.8496 39.1271 93.2199 38.7335C92.8263 38.458 92.5311 38.0447 92.3344 37.4938C92.2163 37.1002 92.2163 36.4705 92.3344 35.6046C92.413 35.2898 92.5115 35.0143 92.6295 34.7781C92.787 34.542 92.9444 34.3255 93.1018 34.1287C93.5741 33.6565 94.0464 33.2432 94.5187 32.889C95.5026 32.338 96.4275 32.0625 97.2934 32.0625C97.805 31.9838 98.3166 31.9444 98.8283 31.9444C99.34 31.905 99.8122 31.8854 100.245 31.8854H102.193C102.627 31.8067 102.901 31.7673 103.019 31.7673C103.177 31.7673 103.59 31.7673 104.259 31.7673H108.51H112.878C113.508 31.7673 114.099 31.7673 114.649 31.7673C115.24 31.7673 115.752 31.8067 116.184 31.8854H118.133H119.786C120.14 31.8854 120.455 31.9248 120.73 32.0035C121.046 32.0429 121.36 32.0625 121.675 32.0625H124.331C125.158 32.1806 125.965 32.3971 126.752 32.7119C127.658 33.0267 128.248 33.4007 128.523 33.8336C128.602 33.991 128.7 34.2074 128.818 34.483C128.936 34.7585 128.995 35.0733 128.995 35.4275C129.075 36.3327 129.134 37.1986 129.172 38.0251C129.252 38.8516 129.29 39.6781 129.29 40.5046C129.212 41.2917 129.153 42.0001 129.113 42.6299C129.113 43.2202 129.113 43.791 129.113 44.3419C129.113 45.129 128.976 45.9359 128.7 46.7624C128.385 47.6676 127.835 48.2579 127.047 48.5335C126.732 48.6121 126.398 48.6909 126.043 48.7696C125.689 48.809 125.276 48.8286 124.804 48.8286C124.411 48.9073 124.017 48.8877 123.623 48.7696C123.269 48.6515 122.994 48.4744 122.796 48.2383C122.364 47.8841 122.088 47.2543 121.97 46.3491C121.97 46.0343 121.951 45.7391 121.911 45.4636C121.911 45.1488 121.872 44.8142 121.793 44.46V43.5745V42.4528C121.793 42.2953 121.793 42.1182 121.793 41.9215C121.793 41.7247 121.754 41.5476 121.675 41.3901C121.675 41.2327 121.636 41.095 121.557 40.9769C121.518 40.8194 121.459 40.7014 121.38 40.6227C121.223 40.4652 121.065 40.3471 120.907 40.2685C120.75 40.1898 120.553 40.111 120.317 40.0323C120.042 39.9536 119.786 39.8749 119.549 39.7962C119.353 39.7175 119.117 39.6781 118.841 39.6781H117.542H116.184H114.413H110.694C109.986 39.6781 109.239 39.7175 108.451 39.7962C107.704 39.8749 106.955 39.9142 106.207 39.9142H102.901H99.0054H96.8801ZM124.036 70.7309C124.312 70.7309 124.588 70.7703 124.863 70.849C125.178 70.8884 125.493 70.908 125.807 70.908C126.123 70.908 126.418 70.9474 126.693 71.0261C126.969 71.0655 127.264 71.0851 127.578 71.0851C127.972 71.1638 128.287 71.2622 128.523 71.3803C128.759 71.4984 128.995 71.6361 129.231 71.7935C129.429 71.951 129.606 72.1477 129.763 72.3839C129.92 72.62 129.999 72.8562 129.999 73.0923C130.078 73.4071 130.117 73.6827 130.117 73.9188C130.117 74.155 130.117 74.4305 130.117 74.7453C130.117 75.257 130.019 75.8474 129.822 76.5164C129.743 76.6739 129.665 76.7919 129.585 76.8706C129.507 76.9887 129.389 77.1264 129.231 77.2839C129.075 77.3625 128.917 77.4019 128.759 77.4019C128.602 77.4413 128.405 77.5004 128.169 77.579C127.972 77.579 127.755 77.5987 127.519 77.6381C127.283 77.6775 127.067 77.6971 126.87 77.6971H125.984H100.068H98.297C97.7066 77.8546 97.0966 77.8546 96.4668 77.6971C96.152 77.6971 95.8569 77.6577 95.5813 77.579C95.3452 77.5396 95.05 77.4806 94.6958 77.4019C94.1841 77.2445 93.7906 76.9493 93.5151 76.5164C93.2789 76.1622 93.0822 75.8276 92.9247 75.5128C92.8066 75.198 92.7476 74.8437 92.7476 74.4501V72.0887C92.8657 71.3803 92.8657 70.4161 92.7476 69.196C92.7476 68.645 92.7476 67.9562 92.7476 67.1297C92.7476 66.3032 92.787 65.6342 92.8657 65.1225C92.8657 64.3747 93.1805 63.7056 93.8102 63.1153C94.3612 62.7217 95.0894 62.5249 95.9946 62.5249C96.2307 62.5249 96.4669 62.5446 96.703 62.584C96.9391 62.584 97.2147 62.6234 97.5295 62.702C98.1198 62.8201 98.5921 63.1153 98.9464 63.5876C99.2612 64.0205 99.4777 64.4928 99.5957 65.0044C99.5957 65.3193 99.5957 65.6144 99.5957 65.89C99.6351 66.1261 99.6942 66.4016 99.7728 66.7165V69.4911V70.7309H124.036Z" fill="#3399FF"/>
<path id="Vector_3" d="M57.7486 93.311C60.1493 94.6885 61.8614 96.4596 62.8847 98.6242C63.3963 99.6869 63.7309 100.868 63.8883 102.166C64.0457 103.465 64.0851 104.922 64.0064 106.535C63.8883 108.306 63.4947 109.9 62.8257 111.317C62.1565 112.734 61.271 113.954 60.1691 114.977C59.1064 115.961 57.8469 116.729 56.3908 117.28C54.9345 117.792 53.38 118.047 51.727 118.047H48.7162C48.3225 118.047 47.9289 118.047 47.5354 118.047C47.1418 118.007 46.7286 117.948 46.2957 117.87C45.8627 117.87 45.4494 117.811 45.0559 117.693C44.6623 117.575 44.2491 117.476 43.8162 117.398C43.3832 117.201 42.9503 116.984 42.5174 116.748C42.1238 116.512 41.6515 116.236 41.1005 115.922C39.2901 114.741 38.0307 113.147 37.3223 111.14C37.0073 110.235 36.7712 109.27 36.6138 108.247C36.4564 107.224 36.3777 106.221 36.3777 105.236C36.3777 104.174 36.4564 103.151 36.6138 102.166C36.8106 101.182 37.1254 100.238 37.5584 99.3327C37.8732 98.3881 38.3455 97.5616 38.9753 96.8532C39.6049 96.1054 40.3133 95.3969 41.1005 94.7279C41.809 94.1375 42.537 93.6456 43.2849 93.252C44.0326 92.8191 44.8591 92.4845 45.7644 92.2484C46.5515 91.9336 47.3976 91.7367 48.3029 91.658C49.2081 91.5794 50.074 91.5794 50.9005 91.658C51.3334 91.7761 51.6876 91.8548 51.9631 91.8942C52.2779 91.8942 52.5731 91.8942 52.8487 91.8942C53.1635 91.9729 53.439 92.0319 53.6752 92.0713C53.9506 92.0713 54.2065 92.1303 54.4426 92.2484C54.718 92.3271 54.9739 92.4059 55.2101 92.4845C55.4855 92.5239 55.7414 92.6026 55.9775 92.7207C56.2137 92.7994 56.4891 92.8978 56.804 93.0159C57.1189 93.1339 57.4337 93.2324 57.7486 93.311ZM77.4665 132.038C78.0175 132.038 78.4702 132.275 78.8244 132.747C79.1786 133.219 79.4147 133.79 79.5328 134.459C79.6115 135.246 79.5721 135.895 79.4147 136.407C79.2573 136.879 79.0211 137.332 78.7063 137.765C78.1159 138.277 77.6043 138.591 77.1714 138.71C76.9745 138.71 76.7974 138.749 76.64 138.828C76.4826 138.906 76.2661 138.946 75.9907 138.946H71.7401H64.3606H56.2727H49.8378H47.1222C46.2957 138.946 45.5675 138.926 44.9379 138.887C44.3475 138.847 43.8162 138.71 43.3439 138.473C42.9109 138.237 42.5567 137.883 42.2813 137.411C42.0451 136.978 41.927 136.545 41.927 136.112V127.079V125.958V124.777V123.951C42.1632 123.084 42.5567 122.435 43.1078 122.002C43.5407 121.727 43.9343 121.53 44.2885 121.412C44.682 121.254 45.115 121.176 45.5873 121.176C45.6659 121.176 45.9021 121.216 46.2957 121.294C46.7286 121.334 47.0041 121.353 47.1222 121.353C47.3583 121.431 47.5747 121.53 47.7716 121.648C48.0077 121.727 48.2241 121.904 48.421 122.179C48.4997 122.337 48.5981 122.514 48.7162 122.711C48.8342 122.869 48.9325 123.065 49.0113 123.301C49.1294 123.577 49.1884 123.832 49.1884 124.069C49.2277 124.305 49.2868 124.541 49.3655 124.777V126.253V127.375V129.264V131.035V131.861H50.5463C50.7824 131.901 51.0578 131.92 51.3728 131.92C51.6482 131.96 51.9434 131.979 52.2583 131.979C52.5731 131.979 52.9273 131.979 53.3209 131.979C53.5571 131.979 54.1474 131.979 55.092 131.979C56.0759 131.979 57.2369 131.979 58.5751 131.979C59.9526 131.94 61.4481 131.92 63.0618 131.92C64.6754 131.92 66.2104 131.92 67.6666 131.92C69.1622 131.92 70.5003 131.94 71.681 131.979C72.9011 131.979 73.8063 131.979 74.3967 131.979H75.8726C75.9513 131.979 76.1284 131.999 76.4039 132.038C76.6793 132.038 77.0335 132.038 77.4665 132.038ZM56.9221 104.705C56.8433 104.272 56.7647 103.898 56.686 103.583C56.6072 103.229 56.5285 102.875 56.4498 102.521C56.253 102.206 56.0759 101.891 55.9185 101.576C55.761 101.261 55.5445 100.986 55.2691 100.75C55.033 100.513 54.7574 100.317 54.4426 100.159C54.1277 99.9624 53.7538 99.7656 53.3209 99.5688C52.8093 99.4507 52.3173 99.3523 51.845 99.2736C51.3728 99.1556 50.8807 99.0965 50.3692 99.0965C49.8181 99.0965 49.2868 99.1556 48.7752 99.2736C48.2635 99.3523 47.7912 99.4507 47.3583 99.5688C46.886 99.8443 46.4334 100.12 46.0005 100.395C45.6069 100.671 45.2527 101.025 44.9379 101.458C44.5443 101.773 44.2491 102.186 44.0523 102.698C43.8555 103.17 43.6587 103.741 43.462 104.41C43.462 104.842 43.462 105.256 43.462 105.649C43.462 106.043 43.5013 106.457 43.58 106.889C43.58 107.283 43.6587 107.676 43.8162 108.07C43.9735 108.464 44.1704 108.818 44.4065 109.133C44.682 109.487 44.9772 109.801 45.2921 110.077C45.6069 110.313 45.9415 110.549 46.2957 110.786C46.7286 111.022 47.1812 111.239 47.6535 111.435C48.1258 111.593 48.6964 111.711 49.3655 111.789C49.7984 111.789 50.2117 111.789 50.6053 111.789C50.9988 111.75 51.4121 111.69 51.845 111.612C52.6322 111.612 53.3996 111.395 54.1474 110.963C54.4623 110.805 54.7771 110.608 55.092 110.372C55.4462 110.097 55.7414 109.801 55.9775 109.487C56.4891 108.778 56.804 108.011 56.9221 107.184V104.705ZM79.1786 116.748C79.1786 117.142 79.1392 117.535 79.0605 117.929C78.9817 118.323 78.903 118.736 78.8244 119.169C78.4702 120.428 77.6437 121.195 76.3449 121.471C75.0854 121.747 74.0621 121.471 73.275 120.645C72.5272 119.818 72.0746 118.834 71.9172 117.693C71.8384 117.378 71.7794 117.063 71.7401 116.748C71.7401 116.394 71.7401 116.059 71.7401 115.745V113.737L71.9172 98.5062C71.9172 97.9552 71.8974 97.3649 71.8582 96.7351C71.8582 96.0661 71.8974 95.4363 71.9762 94.846C72.0943 94.2162 72.3107 93.6456 72.6256 93.1339C72.9404 92.6222 73.4324 92.209 74.1015 91.8942C74.4163 91.6974 74.7509 91.599 75.1051 91.599C75.4986 91.5596 75.9119 91.5794 76.3449 91.658C77.25 91.7761 77.9191 92.15 78.3521 92.7797C78.8244 93.4095 79.0998 94.1375 79.1786 94.964V96.9712V116.748ZM132.61 93.6652C132.729 93.9408 132.827 94.354 132.906 94.905C132.984 95.456 133.043 96.0267 133.083 96.617C133.122 97.168 133.142 97.6797 133.142 98.152C133.142 98.6242 133.142 98.8998 133.142 98.9785V119.346C133.142 119.385 133.122 119.542 133.083 119.818C133.043 120.054 132.945 120.349 132.788 120.704C132.67 121.058 132.473 121.412 132.197 121.766C131.961 122.12 131.647 122.416 131.253 122.652C130.702 123.006 130.131 123.183 129.541 123.183C128.754 123.183 128.065 122.947 127.474 122.475C127.002 122.199 126.648 121.806 126.412 121.294C126.136 120.822 125.959 120.349 125.88 119.877C125.802 119.405 125.743 118.952 125.703 118.519V116.807H125.526C124.936 116.768 124.306 116.748 123.637 116.748C123.007 116.709 122.378 116.67 121.748 116.63C121.158 116.552 120.607 116.434 120.095 116.276C119.583 116.079 119.19 115.823 118.914 115.508C118.875 115.627 118.777 115.804 118.619 116.04C118.265 116.472 117.852 116.788 117.379 116.984C116.947 117.142 116.474 117.26 115.962 117.339C115.49 117.417 114.998 117.457 114.487 117.457C113.975 117.417 113.483 117.398 113.011 117.398H94.5915C93.8044 117.398 92.9779 117.28 92.112 117.043C91.2461 116.807 90.6557 116.295 90.3409 115.508C90.1442 114.958 90.0654 114.288 90.1048 113.501C90.1835 112.714 90.459 112.124 90.9313 111.73C91.2068 111.454 91.5413 111.298 91.9349 111.258C92.3285 111.218 92.7023 111.199 93.0566 111.199C93.3321 111.199 93.5879 111.218 93.824 111.258C94.0996 111.258 94.375 111.258 94.6505 111.258C94.808 111.258 94.9261 111.258 95.0047 111.258C95.1228 111.258 95.1818 111.159 95.1818 110.963C95.2605 110.53 95.2803 110.117 95.2409 109.723C95.2015 109.29 95.1818 108.857 95.1818 108.424V104.115C95.1818 103.682 95.1818 103.248 95.1818 102.816C95.2212 102.343 95.2409 101.891 95.2409 101.458C95.2409 101.419 95.2409 101.32 95.2409 101.163C95.2409 100.966 95.2409 100.789 95.2409 100.631C95.2409 100.435 95.2409 100.258 95.2409 100.1C95.2409 99.9427 95.2409 99.864 95.2409 99.864C94.9261 99.864 94.6111 99.864 94.2963 99.864C94.0208 99.8246 93.7256 99.7853 93.4108 99.7459C92.663 99.6672 92.0529 99.4704 91.5807 99.1556C91.1084 98.8014 90.7936 98.2306 90.6361 97.4435C90.5574 97.0499 90.518 96.6564 90.518 96.2628C90.518 95.8299 90.6164 95.4167 90.8132 95.0231C91.128 94.4327 91.6397 94.0391 92.3481 93.8424C92.8598 93.6456 93.3714 93.5866 93.8831 93.6652C94.3947 93.7046 94.9063 93.7046 95.418 93.6652C96.087 93.6259 96.7168 93.6062 97.3071 93.6062C97.9369 93.5668 98.5863 93.5472 99.2553 93.5472C99.8851 93.5078 100.495 93.4881 101.085 93.4881C101.676 93.4881 102.306 93.4881 102.975 93.4881H113.601C114.152 93.4881 114.683 93.5275 115.195 93.6062C115.746 93.6456 116.277 93.7637 116.789 93.9604C117.655 94.236 118.245 94.8263 118.56 95.7315C118.836 96.3219 118.914 96.9319 118.796 97.5616C118.678 98.152 118.343 98.6242 117.793 98.9785C117.084 99.4507 116.297 99.6672 115.431 99.6279C114.605 99.5885 113.797 99.6082 113.011 99.6869C113.05 100.199 113.07 100.966 113.07 101.989C113.109 103.012 113.148 104.095 113.188 105.236C113.227 106.377 113.247 107.48 113.247 108.542C113.286 109.605 113.306 110.451 113.306 111.081C113.7 111.081 114.132 111.081 114.605 111.081C115.077 111.041 115.53 111.041 115.962 111.081C116.435 111.081 116.867 111.14 117.261 111.258C117.694 111.336 118.088 111.513 118.442 111.789C118.442 111.789 118.482 111.829 118.56 111.907C118.678 111.475 118.914 111.12 119.268 110.845C119.623 110.569 120.194 110.333 120.98 110.136C121.138 110.097 121.433 110.077 121.866 110.077C122.338 110.037 122.811 109.999 123.283 109.959C123.795 109.919 124.267 109.9 124.7 109.9C125.172 109.86 125.507 109.841 125.703 109.841V106.004C125.113 106.004 124.444 106.023 123.696 106.063C122.988 106.063 122.299 106.043 121.63 106.004C121 105.925 120.409 105.807 119.859 105.649C119.347 105.492 118.973 105.217 118.737 104.823C118.619 104.627 118.52 104.37 118.442 104.056C118.402 103.741 118.364 103.425 118.324 103.111C118.324 102.757 118.343 102.422 118.383 102.107C118.423 101.793 118.461 101.517 118.501 101.281C118.619 100.848 118.855 100.474 119.209 100.159C119.564 99.8444 120.154 99.5885 120.98 99.3917C121.099 99.3523 121.335 99.3327 121.689 99.3327C122.083 99.2933 122.515 99.2736 122.988 99.2736C123.46 99.2342 123.932 99.2146 124.405 99.2146C124.917 99.1752 125.349 99.1556 125.703 99.1556C125.703 98.9981 125.703 98.7227 125.703 98.3291C125.703 97.9355 125.703 97.5222 125.703 97.0893C125.703 96.6564 125.723 96.2628 125.762 95.9086C125.802 95.515 125.841 95.2396 125.88 95.0821C125.998 94.7673 126.097 94.4524 126.176 94.1375C126.254 93.8227 126.431 93.5078 126.707 93.193C127.061 92.7994 127.533 92.5239 128.124 92.3665C128.754 92.1697 129.423 92.1107 130.131 92.1894C131.39 92.3861 132.217 92.8781 132.61 93.6652ZM131.843 132.097C131.843 132.097 131.961 132.137 132.197 132.216C132.473 132.294 132.768 132.432 133.083 132.629C133.397 132.787 133.692 133.023 133.968 133.337C134.244 133.613 134.421 133.947 134.5 134.341C134.696 135.836 134.441 136.997 133.732 137.824C133.26 138.375 132.748 138.709 132.197 138.828C131.647 138.946 131.351 139.005 131.312 139.005H100.554C98.9405 139.005 97.681 138.749 96.7758 138.237C95.8706 137.765 95.418 137.076 95.418 136.171V127.965C95.418 127.729 95.3983 127.434 95.3589 127.079C95.3589 126.725 95.3589 126.352 95.3589 125.958C95.3589 125.525 95.3589 125.131 95.3589 124.777C95.3983 124.423 95.418 124.128 95.418 123.892C95.4967 123.065 95.8903 122.396 96.5987 121.884C97.3071 121.372 98.114 121.117 99.0192 121.117C99.2159 121.117 99.4521 121.136 99.7276 121.176C100.042 121.176 100.298 121.216 100.495 121.294C101.007 121.452 101.42 121.727 101.735 122.12C102.049 122.475 102.285 122.888 102.443 123.36C102.601 123.832 102.699 124.344 102.738 124.895C102.778 125.407 102.817 125.879 102.856 126.312C102.856 126.47 102.856 126.843 102.856 127.434C102.856 127.984 102.856 128.595 102.856 129.264C102.856 129.894 102.856 130.484 102.856 131.035C102.856 131.547 102.856 131.861 102.856 131.979C102.975 132.019 103.289 132.078 103.801 132.157C104.352 132.196 105.355 132.216 106.812 132.216C108.071 132.216 109.193 132.196 110.177 132.157C111.161 132.117 111.672 132.097 111.712 132.097H131.843ZM106.812 110.549C106.852 110.313 106.852 110.077 106.812 109.841C106.812 109.565 106.831 109.31 106.871 109.074V104.233C106.871 103.682 106.871 103.151 106.871 102.639C106.871 102.088 106.852 101.537 106.812 100.986C106.812 100.71 106.772 100.474 106.694 100.277C106.654 100.08 106.497 99.923 106.222 99.805C105.985 99.7263 105.73 99.6869 105.454 99.6869C105.178 99.6869 104.903 99.6869 104.628 99.6869C104.273 99.6869 103.919 99.6869 103.565 99.6869C103.211 99.6869 102.876 99.7065 102.561 99.7459C102.404 99.7853 102.266 99.805 102.148 99.805C102.03 99.7656 101.912 99.7853 101.794 99.864C101.479 100.021 101.302 100.258 101.263 100.572C101.223 100.887 101.243 101.182 101.322 101.458C101.361 101.773 101.361 102.107 101.322 102.462C101.322 102.776 101.322 103.092 101.322 103.406V109.605C101.322 109.841 101.302 110.097 101.263 110.372C101.263 110.608 101.361 110.825 101.558 111.022C101.754 111.218 101.99 111.277 102.266 111.199C102.738 111.199 103.211 111.218 103.683 111.258C104.155 111.258 104.628 111.218 105.1 111.14C105.296 111.14 105.473 111.159 105.631 111.199C105.828 111.199 106.025 111.18 106.222 111.14C106.458 111.1 106.615 111.061 106.694 111.022C106.772 110.943 106.812 110.786 106.812 110.549Z" fill="#3399FF"/>
</g>
<defs>
<clipPath id="clip0_13_813">
<rect width="171" height="171" fill="white"/>
</clipPath>
</defs>
</svg>
