<svg width="171" height="43" viewBox="0 0 171 43" fill="none" xmlns="http://www.w3.org/2000/svg">
<path d="M13.2698 33.932C11.6858 33.932 10.2191 33.6973 8.86975 33.228C7.54975 32.7587 6.42042 32.084 5.48175 31.204C4.54308 30.324 3.80975 29.2533 3.28175 27.992C2.75375 26.7013 2.48975 25.264 2.48975 23.68C2.48975 22.096 2.75375 20.6733 3.28175 19.412C3.80975 18.1213 4.54308 17.036 5.48175 16.156C6.42042 15.276 7.54975 14.6013 8.86975 14.132C10.2191 13.6627 11.6858 13.428 13.2698 13.428C14.8538 13.428 16.3058 13.6627 17.6258 14.132C18.9751 14.6013 20.1191 15.276 21.0578 16.156C21.9964 17.036 22.7298 18.1213 23.2578 19.412C23.7858 20.6733 24.0498 22.096 24.0498 23.68C24.0498 25.264 23.7858 26.7013 23.2578 27.992C22.7298 29.2533 21.9964 30.324 21.0578 31.204C20.1191 32.084 18.9751 32.7587 17.6258 33.228C16.3058 33.6973 14.8538 33.932 13.2698 33.932ZM28.5818 4.76C28.5818 3.73333 28.9044 2.94133 29.5498 2.384C30.2244 1.82666 31.0751 1.548 32.1018 1.548C33.1284 1.548 33.9644 1.82666 34.6098 2.384C35.2844 2.94133 35.6218 3.73333 35.6218 4.76V16.772H38.7458C39.6844 16.772 40.4324 17.0213 40.9898 17.52C41.5764 18.0187 41.8698 18.7813 41.8698 19.808C41.8698 20.8053 41.5764 21.5533 40.9898 22.052C40.4324 22.5507 39.6844 22.8 38.7458 22.8H35.6218V39.168C35.6218 40.1947 35.2844 40.9867 34.6098 41.544C33.9644 42.1013 33.1284 42.38 32.1018 42.38C31.0751 42.38 30.2244 42.1013 29.5498 41.544C28.9044 40.9867 28.5818 40.1947 28.5818 39.168V4.76ZM9.79375 3.88C9.79375 2.824 10.1018 2.032 10.7178 1.504C11.3631 0.946665 12.2138 0.667999 13.2698 0.667999C14.3258 0.667999 15.1764 0.946665 15.8218 1.504C16.4671 2.032 16.7898 2.824 16.7898 3.88V6.696H22.6418C23.6391 6.696 24.3871 6.94533 24.8858 7.444C25.4138 7.94267 25.6778 8.60267 25.6778 9.424C25.6778 10.2453 25.4138 10.9053 24.8858 11.404C24.3871 11.9027 23.6391 12.152 22.6418 12.152H3.50175C2.50442 12.152 1.74175 11.9027 1.21375 11.404C0.715084 10.9053 0.465751 10.2453 0.465751 9.424C0.465751 8.60267 0.715084 7.94267 1.21375 7.444C1.74175 6.94533 2.50442 6.696 3.50175 6.696H9.79375V3.88ZM13.2698 18.796C11.9498 18.796 10.9524 19.28 10.2778 20.248C9.60308 21.216 9.26575 22.36 9.26575 23.68C9.26575 25 9.60308 26.144 10.2778 27.112C10.9524 28.08 11.9498 28.564 13.2698 28.564C14.5898 28.564 15.5871 28.08 16.2618 27.112C16.9364 26.144 17.2738 25 17.2738 23.68C17.2738 22.36 16.9364 21.216 16.2618 20.248C15.5871 19.28 14.5898 18.796 13.2698 18.796ZM77.7177 37.54C78.6564 37.54 79.3897 37.7013 79.9177 38.024C80.4457 38.376 80.7097 39.0213 80.7097 39.96C80.7097 40.8987 80.4457 41.5293 79.9177 41.852C79.3897 42.204 78.6564 42.38 77.7177 42.38H54.4417C53.0044 42.38 52.0071 42.116 51.4497 41.588C50.8924 41.06 50.6137 40.0773 50.6137 38.64V34.592C50.6137 33.1547 50.8924 32.1867 51.4497 31.688C52.0071 31.16 53.0044 30.896 54.4417 30.896H73.0097C73.2151 30.896 73.3177 30.7933 73.3177 30.588V29.444C73.3177 29.2387 73.2151 29.136 73.0097 29.136H53.6497C52.7697 29.136 52.0364 28.9747 51.4497 28.652C50.8924 28.3 50.6137 27.684 50.6137 26.804C50.6137 25.924 50.8924 25.3227 51.4497 25C52.0364 24.648 52.7697 24.472 53.6497 24.472H76.0457C77.4831 24.472 78.4657 24.736 78.9937 25.264C79.5511 25.792 79.8297 26.7747 79.8297 28.212V31.82C79.8297 33.2573 79.5511 34.24 78.9937 34.768C78.4657 35.296 77.4831 35.56 76.0457 35.56H57.4777C57.2724 35.56 57.1697 35.6627 57.1697 35.868V37.232C57.1697 37.4373 57.2724 37.54 57.4777 37.54H77.7177ZM48.3697 22.14C47.5484 22.14 46.8737 21.964 46.3457 21.612C45.8177 21.2307 45.5537 20.6293 45.5537 19.808C45.5537 18.9867 45.8177 18.4 46.3457 18.048C46.8737 17.6667 47.5484 17.476 48.3697 17.476H82.1177C82.9391 17.476 83.5991 17.6667 84.0977 18.048C84.6257 18.4 84.8897 18.9867 84.8897 19.808C84.8897 20.6293 84.6257 21.2307 84.0977 21.612C83.5991 21.964 82.9391 22.14 82.1177 22.14H48.3697ZM50.8337 4.936C50.8337 3.90933 51.1124 3.11733 51.6697 2.56C52.2564 2.00266 53.0777 1.724 54.1337 1.724C55.1897 1.724 55.9964 2.00266 56.5537 2.56C57.1404 3.11733 57.4337 3.90933 57.4337 4.936V9.468C57.4337 9.67333 57.4631 9.80533 57.5217 9.864C57.5804 9.92267 57.7271 9.952 57.9617 9.952H77.1017C78.0404 9.952 78.8031 10.1427 79.3897 10.524C79.9764 10.9053 80.2697 11.5653 80.2697 12.504C80.2697 13.4427 79.9764 14.1027 79.3897 14.484C78.8031 14.8653 78.0404 15.056 77.1017 15.056H55.1017C53.6057 15.056 52.5204 14.7333 51.8457 14.088C51.1711 13.4427 50.8337 12.372 50.8337 10.876V4.936ZM118.714 4.76C118.714 3.73333 119.036 2.94133 119.682 2.384C120.356 1.82666 121.207 1.548 122.234 1.548C123.26 1.548 124.096 1.82666 124.742 2.384C125.416 2.94133 125.754 3.73333 125.754 4.76V26.54C125.754 27.5667 125.416 28.3587 124.742 28.916C124.096 29.4733 123.26 29.752 122.234 29.752C121.207 29.752 120.356 29.4733 119.682 28.916C119.036 28.3587 118.714 27.5667 118.714 26.54V4.76ZM100.806 26.628C101.832 26.628 102.683 26.9213 103.358 27.508C104.032 28.0947 104.37 28.916 104.37 29.972V35.34C104.37 35.6627 104.414 35.868 104.502 35.956C104.59 36.044 104.795 36.088 105.118 36.088H123.862C124.8 36.088 125.534 36.3373 126.062 36.836C126.59 37.3347 126.854 38.0533 126.854 38.992C126.854 39.9307 126.59 40.6493 126.062 41.148C125.534 41.6467 124.8 41.896 123.862 41.896H101.246C99.8084 41.896 98.7817 41.6027 98.1657 41.016C97.5497 40.4293 97.2417 39.432 97.2417 38.024V29.972C97.2417 28.916 97.579 28.0947 98.2537 27.508C98.9284 26.9213 99.779 26.628 100.806 26.628ZM91.1257 12.9C91.1257 11.1987 91.3897 9.688 91.9177 8.368C92.475 7.01867 93.2377 5.88933 94.2057 4.98C95.203 4.04133 96.391 3.32267 97.7697 2.824C99.1484 2.32533 100.688 2.076 102.39 2.076C104.091 2.076 105.631 2.32533 107.01 2.824C108.388 3.32267 109.562 4.04133 110.53 4.98C111.527 5.88933 112.29 7.01867 112.818 8.368C113.375 9.688 113.654 11.1987 113.654 12.9C113.654 14.6013 113.375 16.1267 112.818 17.476C112.29 18.796 111.527 19.9253 110.53 20.864C109.562 21.7733 108.374 22.4773 106.966 22.976C105.587 23.4747 104.062 23.724 102.39 23.724C100.688 23.724 99.1484 23.4747 97.7697 22.976C96.391 22.4773 95.203 21.7733 94.2057 20.864C93.2377 19.9253 92.475 18.796 91.9177 17.476C91.3897 16.1267 91.1257 14.6013 91.1257 12.9ZM97.9897 12.9C97.9897 14.4253 98.3417 15.716 99.0457 16.772C99.7497 17.828 100.864 18.356 102.39 18.356C103.915 18.356 105.03 17.828 105.734 16.772C106.438 15.716 106.79 14.4253 106.79 12.9C106.79 11.3747 106.438 10.084 105.734 9.028C105.03 7.972 103.915 7.444 102.39 7.444C100.864 7.444 99.7497 7.972 99.0457 9.028C98.3417 10.084 97.9897 11.3747 97.9897 12.9ZM137.06 25.484C136.121 25.484 135.359 25.2787 134.772 24.868C134.185 24.4573 133.892 23.7827 133.892 22.844C133.892 21.9053 134.185 21.2307 134.772 20.82C135.359 20.4093 136.121 20.204 137.06 20.204H138.468C138.263 19.324 138.131 18.3853 138.072 17.388C138.013 16.3907 137.984 15.4813 137.984 14.66V12.064C137.984 11.0667 138.277 10.3333 138.864 9.864C139.451 9.36533 140.243 9.116 141.24 9.116C142.237 9.116 143.029 9.36533 143.616 9.864C144.203 10.3333 144.496 11.0667 144.496 12.064V14.968C144.496 15.9947 144.511 16.9187 144.54 17.74C144.569 18.5613 144.657 19.3827 144.804 20.204H148.28H148.588C148.735 19.3827 148.823 18.5613 148.852 17.74C148.911 16.9187 148.94 15.9947 148.94 14.968V12.064C148.94 11.0667 149.233 10.3333 149.82 9.864C150.407 9.36533 151.199 9.116 152.196 9.116C153.193 9.116 153.985 9.36533 154.572 9.864C155.159 10.3333 155.452 11.0667 155.452 12.064V14.66C155.452 15.4227 155.423 16.2587 155.364 17.168C155.305 18.0773 155.188 18.9573 155.012 19.808L157.036 19.588C158.767 19.412 159.735 20.1013 159.94 21.656C160.057 22.4773 159.896 23.1667 159.456 23.724C159.045 24.2813 158.385 24.6333 157.476 24.78C155.657 25.044 154.059 25.2347 152.68 25.352C151.301 25.44 149.908 25.484 148.5 25.484H137.06ZM162.712 4.76C162.712 3.73333 163.035 2.94133 163.68 2.384C164.355 1.82666 165.205 1.548 166.232 1.548C167.259 1.548 168.095 1.82666 168.74 2.384C169.415 2.94133 169.752 3.73333 169.752 4.76V27.64C169.752 28.6667 169.415 29.4587 168.74 30.016C168.095 30.5733 167.259 30.852 166.232 30.852C165.205 30.852 164.355 30.5733 163.68 30.016C163.035 29.4587 162.712 28.6667 162.712 27.64V18.444H160.776C159.837 18.444 159.075 18.2973 158.488 18.004C157.901 17.7107 157.608 17.0947 157.608 16.156C157.608 15.2173 157.901 14.6013 158.488 14.308C159.075 14.0147 159.837 13.868 160.776 13.868H162.712V12.02H160.776C159.837 12.02 159.075 11.8733 158.488 11.58C157.901 11.2867 157.608 10.6707 157.608 9.732C157.608 8.79333 157.901 8.17733 158.488 7.884C159.075 7.59066 159.837 7.444 160.776 7.444H162.712V4.76ZM144.804 27.728C145.831 27.728 146.681 28.0213 147.356 28.608C148.031 29.1947 148.368 30.016 148.368 31.072V35.34C148.368 35.6627 148.412 35.868 148.5 35.956C148.588 36.044 148.793 36.088 149.116 36.088H167.86C168.799 36.088 169.532 36.3373 170.06 36.836C170.588 37.3347 170.852 38.0533 170.852 38.992C170.852 39.9307 170.588 40.6493 170.06 41.148C169.532 41.6467 168.799 41.896 167.86 41.896H145.244C143.807 41.896 142.78 41.6027 142.164 41.016C141.548 40.4293 141.24 39.432 141.24 38.024V31.072C141.24 30.016 141.577 29.1947 142.252 28.608C142.927 28.0213 143.777 27.728 144.804 27.728ZM155.452 2.472C156.391 2.472 157.153 2.67733 157.74 3.088C158.327 3.49867 158.62 4.17333 158.62 5.112C158.62 6.05067 158.327 6.72533 157.74 7.136C157.153 7.54667 156.391 7.752 155.452 7.752H137.984C137.045 7.752 136.283 7.54667 135.696 7.136C135.109 6.72533 134.816 6.05067 134.816 5.112C134.816 4.17333 135.109 3.49867 135.696 3.088C136.283 2.67733 137.045 2.472 137.984 2.472H155.452Z" fill="#3399FF"/>
</svg>
